<?xml version="1.0" encoding="utf-8"?>
<!-- Generator: Adobe Illustrator 19.2.1, SVG Export Plug-In . SVG Version: 6.00 Build 0)  -->
<svg version="1.1" id="레이어_1" xmlns="http://www.w3.org/2000/svg" xmlns:xlink="http://www.w3.org/1999/xlink" x="0px"
	 y="0px" viewBox="0 0 2000 1000" style="enable-background:new 0 0 2000 1000;" xml:space="preserve">
<style type="text/css">
	.st0{fill:none;stroke:#000000;stroke-miterlimit:10;}
</style>
<line class="st0" x1="234.2" y1="311.3" x2="765.8" y2="32.2"/>
<line class="st0" x1="290.6" y1="118.8" x2="581.4" y2="975.5"/>
<line class="st0" x1="319.9" y1="974.2" x2="1676" y2="775.7"/>
<line class="st0" x1="1175.8" y1="983.4" x2="1620.6" y2="512.9"/>
<line class="st0" x1="245.1" y1="678.5" x2="681.2" y2="980"/>
<line class="st0" x1="1347.3" y1="21.8" x2="1627.2" y2="171.8"/>
<line class="st0" x1="1590.3" y1="105.3" x2="1603.8" y2="975.1"/>
<line class="st0" x1="1657.6" y1="987.4" x2="338.4" y2="668"/>
<line class="st0" x1="596.6" y1="12.8" x2="1664.1" y2="242.7"/>
<line class="st0" x1="455.5" y1="127.7" x2="1487.3" y2="63.6"/>
<line class="st0" x1="23" y1="246.1" x2="574.6" y2="73.5"/>
<line class="st0" x1="69.8" y1="96.8" x2="89.2" y2="784.8"/>
<line class="st0" x1="58.5" y1="718.7" x2="515" y2="967.1"/>
<line class="st0" x1="50.5" y1="171.8" x2="232.7" y2="973.5"/>
<line class="st0" x1="1519.8" y1="984.8" x2="1852.1" y2="718.7"/>
<line class="st0" x1="1618.2" y1="134.8" x2="1848.8" y2="931.6"/>
<line class="st0" x1="1627.2" y1="171.8" x2="1923" y2="423.5"/>
<line class="st0" x1="1716.6" y1="62.3" x2="1806.9" y2="923.5"/>
</svg>
